<svg xmlns="http://www.w3.org/2000/svg" viewBox="0 0 32 32"><g fill="none" fill-rule="evenodd" transform="translate(0 8.478)"><path fill="#8F8F8F" d="M8.9 14.75a.9.9 0 0 1 .06-.34c.04-.1.09-.17.16-.23.07-.05.15-.1.24-.12a1.1 1.1 0 0 1 .58 0c.1.02.17.07.24.12a.6.6 0 0 1 .16.23c.04.09.06.2.06.34 0 .13-.02.24-.06.33a.64.64 0 0 1-.4.36 1.04 1.04 0 0 1-.58 0 .61.61 0 0 1-.4-.36.85.85 0 0 1-.06-.33zm3.7-2.62c0 .27.05.47.15.61.1.14.24.21.44.21s.35-.07.44-.21c.1-.14.14-.34.14-.6 0-.26-.04-.47-.13-.62a.5.5 0 0 0-.45-.23c-.4 0-.59.28-.59.84zm-.47 3.91c0 .07.01.14.04.2a.4.4 0 0 0 .15.19c.07.05.16.09.27.12.11.03.25.04.41.04.45 0 .79-.06 1.01-.18.23-.13.34-.3.34-.51 0-.18-.07-.3-.2-.36a1.76 1.76 0 0 0-.66-.1h-.6c-.08 0-.17.02-.26.04a.76.76 0 0 0-.24.1.6.6 0 0 0-.19.18.5.5 0 0 0-.07.28zm3.43-5.47v.72l-.7.21c.06.1.1.2.12.3.02.11.04.22.04.34 0 .25-.04.47-.12.67a1.38 1.38 0 0 1-.91.85 2.45 2.45 0 0 1-1.19.08c-.06.05-.1.1-.13.16a.35.35 0 0 0-.05.19c0 .06.02.1.05.14.04.04.09.07.15.09l.2.04.26.01h.74c.24 0 .44.03.63.08a1.12 1.12 0 0 1 .76.66c.07.16.1.36.1.6a1.5 1.5 0 0 1-.65 1.3 2.4 2.4 0 0 1-.8.34 4.53 4.53 0 0 1-1.97.03 1.82 1.82 0 0 1-.61-.26 1.14 1.14 0 0 1-.49-.98c0-.17.03-.32.1-.45a1.13 1.13 0 0 1 .57-.56c.13-.05.26-.1.4-.13a.93.93 0 0 1-.45-.47.71.71 0 0 1 .11-.69c.05-.05.11-.12.19-.17l.26-.18c-.25-.1-.45-.28-.6-.52a1.87 1.87 0 0 1-.1-1.54 1.38 1.38 0 0 1 .93-.84 2.55 2.55 0 0 1 1.2-.08 4.84 4.84 0 0 1 .33.06h1.63zm1.97 2.38c0 .48.07.84.2 1.08a.7.7 0 0 0 .66.37c.3 0 .52-.12.65-.37.14-.24.2-.6.2-1.08 0-.47-.06-.83-.2-1.07-.13-.23-.35-.35-.66-.35-.3 0-.52.12-.65.35-.13.24-.2.6-.2 1.07zm3.05 0c0 .4-.05.76-.15 1.07a1.9 1.9 0 0 1-1.14 1.26 2.44 2.44 0 0 1-1.8 0 2 2 0 0 1-1.13-1.26 3.2 3.2 0 0 1-.17-1.07c0-.4.05-.75.15-1.06a1.9 1.9 0 0 1 1.14-1.25 2.4 2.4 0 0 1 1.79 0c.27.1.5.27.7.48.19.2.34.47.45.77.1.31.16.67.16 1.06zm4.26 2.41l-.17-.61h-.07a1.27 1.27 0 0 1-.58.53c-.12.06-.24.1-.37.13a2 2 0 0 1-1.05-.06 1.34 1.34 0 0 1-.49-.32 1.44 1.44 0 0 1-.32-.54 2.5 2.5 0 0 1-.1-.8v-3.13h1.3v2.8c0 .35.05.61.16.79.1.17.27.26.5.26.17 0 .31-.04.43-.1a.9.9 0 0 0 .27-.31c.07-.14.11-.3.14-.5.03-.2.05-.42.05-.68v-2.26h1.3v4.8h-1zm3.39 0l-1.7-4.8h1.37l.8 2.74a5.9 5.9 0 0 1 .19.98h.02a6.28 6.28 0 0 1 .2-.98l.79-2.74h1.37l-1.7 4.8h-1.34z"/><path fill="#0080B2" d="M12.41 6.39h-1.7V2.73a2 2 0 0 0-.2-1.01c-.14-.23-.36-.34-.66-.34-.22 0-.4.04-.56.13a.94.94 0 0 0-.35.4c-.1.17-.15.39-.2.65-.03.26-.05.55-.05.88V6.4H7V.13h1.3l.23.8h.1c.08-.16.2-.3.32-.41a1.84 1.84 0 0 1 .91-.46 2.57 2.57 0 0 1 1.36.08c.25.09.47.23.64.41.18.2.32.43.42.72.1.29.14.63.14 1.04v4.08zm5.93-1.86a1.78 1.78 0 0 1-.68 1.48 2.3 2.3 0 0 1-.8.36 3.9 3.9 0 0 1-1.06.13 7.82 7.82 0 0 1-1.07-.09 4.16 4.16 0 0 1-.9-.28v-1.4a4.7 4.7 0 0 0 1.02.37 4.83 4.83 0 0 0 .95.15c.15 0 .28-.01.4-.04a.9.9 0 0 0 .26-.12.46.46 0 0 0 .15-.18.57.57 0 0 0 .01-.43.52.52 0 0 0-.16-.2 2.5 2.5 0 0 0-.38-.23l-.67-.32a7.29 7.29 0 0 1-.7-.37 2.3 2.3 0 0 1-.5-.4 1.49 1.49 0 0 1-.29-.52 2.2 2.2 0 0 1-.1-.68c0-.3.06-.55.17-.77.11-.21.27-.4.48-.54.2-.15.45-.26.74-.33s.61-.1.97-.1a4.3 4.3 0 0 1 2.1.5l-.52 1.21a7.31 7.31 0 0 0-.81-.33 2.43 2.43 0 0 0-.77-.12c-.24 0-.4.04-.5.12a.4.4 0 0 0-.16.33c0 .08.01.15.04.2.03.06.08.12.16.18a14.48 14.48 0 0 0 .88.47l.72.34c.21.12.4.25.55.4.15.14.27.3.35.5.08.2.12.43.12.7zm4.47-1.04l-.56.02c-.23 0-.42.04-.58.09-.16.05-.28.12-.38.2-.1.1-.16.2-.2.32a1.2 1.2 0 0 0-.07.4c0 .27.07.45.2.57.12.1.29.16.5.16.15 0 .3-.03.43-.08a.96.96 0 0 0 .35-.24c.1-.1.17-.24.23-.4.06-.15.08-.33.08-.53v-.5zm.5 2.9L23 5.54h-.05l-.37.43a1.76 1.76 0 0 1-.9.47c-.18.04-.39.06-.63.06-.25 0-.48-.04-.7-.12a1.5 1.5 0 0 1-.56-.37 1.7 1.7 0 0 1-.38-.61 2.6 2.6 0 0 1-.13-.88c0-.67.21-1.16.64-1.47a3.43 3.43 0 0 1 1.9-.53l1-.03v-.47c0-.26-.07-.45-.22-.57a.96.96 0 0 0-.63-.18c-.27 0-.53.03-.78.11-.26.08-.52.19-.77.32L19.85.57A4.47 4.47 0 0 1 22.1 0c.78 0 1.38.18 1.8.55.41.36.62.92.62 1.67v4.17h-1.2zm5.72-5.01c-.2 0-.36.03-.49.1a.8.8 0 0 0-.32.31c-.08.14-.14.31-.18.52a5 5 0 0 0-.07.74v.19c0 .3.02.57.06.8.03.24.1.43.17.6.09.15.2.27.33.35.14.08.3.13.5.13.35 0 .6-.17.75-.49.16-.32.24-.79.24-1.4a3.2 3.2 0 0 0-.24-1.4.8.8 0 0 0-.75-.45zm.53 5.12a2.07 2.07 0 0 1-.99-.25 1.72 1.72 0 0 1-.33-.25l-.27-.3h-.09a35.08 35.08 0 0 0 .08.67l.01.23v2.54h-1.7V.13h1.38l.25.81h.07c.08-.13.17-.25.27-.36a1.66 1.66 0 0 1 .8-.5c.17-.04.36-.07.56-.07a2 2 0 0 1 .89.2c.26.15.49.35.68.62.19.28.34.61.44 1.02a5.8 5.8 0 0 1 0 2.8c-.11.4-.26.75-.46 1.02-.2.28-.43.48-.7.62-.27.14-.57.2-.9.2zM2.86 1.23c-.3 0-.56.1-.76.31-.2.22-.31.55-.34 1h2.18a1.77 1.77 0 0 0-.28-.94.95.95 0 0 0-.8-.37zm.21 5.27c-.44 0-.86-.07-1.23-.2a2.7 2.7 0 0 1-.98-.59c-.27-.26-.48-.6-.63-1A4 4 0 0 1 0 3.32c0-.56.07-1.04.2-1.45.15-.4.34-.75.59-1.02.24-.28.54-.48.9-.62.34-.14.73-.2 1.15-.2.42 0 .8.05 1.13.18a2.25 2.25 0 0 1 1.38 1.44c.13.36.2.76.2 1.21v.83H1.71c.01.24.05.46.12.65a1.26 1.26 0 0 0 .74.8c.18.06.38.1.61.1a4.5 4.5 0 0 0 1.51-.28l.48-.21v1.32a3.54 3.54 0 0 1-1.47.41c-.2.02-.4.03-.64.03z"/></g></svg>